<svg width="32" height="25" viewBox="0 0 32 25" fill="none" xmlns="http://www.w3.org/2000/svg">
<path d="M27.4459 3.51902C26.0162 2.36318 24.2555 1.54618 22.8986 1.03002C22.4125 0.844767 21.8647 0.909684 21.4372 1.20577C21.0065 1.50027 20.75 1.98793 20.75 2.50885C20.75 3.05668 20.3067 3.50002 19.7589 3.50002C17.2683 3.50002 14.7302 3.50002 12.2396 3.50002C11.6934 3.50002 11.25 3.05668 11.25 2.51043C11.25 1.98952 10.9935 1.50027 10.5644 1.20577C10.1354 0.909684 9.58752 0.844767 9.10144 1.0316C7.73977 1.55252 5.9696 2.37743 4.51927 3.5491C3.06577 4.89652 0.166687 12.7799 0.166687 19.5946C0.166687 19.7149 0.19677 19.8321 0.256937 19.9366C2.25985 23.4722 7.72077 24.3968 8.96369 24.4364C8.9716 24.438 8.97794 24.438 8.98585 24.438C9.20594 24.438 9.43869 24.3493 9.5416 24.153L10.7814 21.8018C9.75852 21.5421 8.70244 21.2333 7.55135 20.8248C6.72644 20.5319 6.29735 19.6263 6.59027 18.8029C6.88319 17.9796 7.79202 17.5505 8.61219 17.8418C14.1966 19.8273 17.5169 19.8258 23.4084 17.8339C24.2365 17.5569 25.1359 17.9986 25.4161 18.8267C25.6964 19.6548 25.2514 20.5541 24.4234 20.8343C23.2707 21.2238 22.2194 21.5215 21.2013 21.7748L22.4569 24.1546C22.5598 24.3509 22.7941 24.4396 23.0126 24.4396C23.0205 24.4396 23.0269 24.4396 23.0348 24.438C24.2793 24.3984 29.7402 23.4722 31.7415 19.9366C31.8033 19.8321 31.8334 19.7149 31.8334 19.593C31.8334 12.7799 28.9343 4.89652 27.4459 3.51902ZM11.3134 16.1477C10.0008 16.1477 8.93835 14.7338 8.93835 12.9873C8.93835 11.2425 10.0008 9.82702 11.3134 9.82702C12.6307 9.65285 13.6599 11.2409 13.6884 12.9873C13.6884 14.7338 12.6259 16.1477 11.3134 16.1477ZM20.7437 16.1857C19.4311 16.1857 18.3687 14.7686 18.3687 13.019C18.3687 11.2694 19.4311 9.85235 20.7437 9.85235C22.0563 9.85235 23.1187 11.2694 23.1187 13.019C23.1187 14.7686 22.0563 16.1857 20.7437 16.1857Z" fill="white"/>
</svg>
