<svg width="32" height="26" viewBox="0 0 32 26" fill="none" xmlns="http://www.w3.org/2000/svg">
<path d="M31.2538 0.382407C29.9634 0.99199 27.7673 2.13516 26.6637 2.35366C26.621 2.36474 26.5862 2.37899 26.545 2.39007C25.2577 1.12024 23.4939 0.333323 21.5417 0.333323C17.6071 0.333323 14.4167 3.52374 14.4167 7.45832C14.4167 7.66574 14.3992 8.04732 14.4167 8.24999C9.32148 8.24999 5.60065 5.59157 2.81557 2.17474C2.44348 1.71557 2.04765 1.95466 1.96532 2.28082C1.78007 3.01866 1.71673 4.25207 1.71673 5.13241C1.71673 7.35066 3.45048 9.52932 6.15007 10.8799C5.6529 11.0082 5.10507 11.1 4.53507 11.1C3.86373 11.1 3.09107 10.9242 2.41498 10.5696C2.16482 10.4382 1.6249 10.4746 1.78482 11.1142C2.42607 13.6777 5.35207 15.4779 7.96615 16.002C7.3724 16.3519 6.10573 16.2807 5.52307 16.2807C5.30773 16.2807 4.55882 16.23 4.07432 16.1698C3.63257 16.116 2.95332 16.23 3.52173 17.0913C4.74249 18.9391 7.50382 20.0997 9.8804 20.144C7.69223 21.8603 4.1139 22.4873 0.685985 22.4873C-0.00751518 22.4715 0.0273182 23.2616 0.586235 23.5545C3.11482 24.8813 7.25682 25.6667 10.2161 25.6667C21.9802 25.6667 28.6667 16.7002 28.6667 8.24841C28.6667 8.11224 28.6635 7.82724 28.6587 7.54066C28.6587 7.51216 28.6667 7.48524 28.6667 7.45674C28.6667 7.41399 28.654 7.37282 28.654 7.33007C28.6492 7.11474 28.6445 6.91366 28.6397 6.80916C29.5723 6.13624 31.0005 4.96774 31.7225 4.07316C31.9679 3.76916 31.77 3.40024 31.4359 3.51582C30.5762 3.81507 29.0894 4.39457 28.1584 4.50541C30.022 3.27199 30.9435 2.19849 31.7352 1.00624C32.0059 0.599324 31.6671 0.186073 31.2538 0.382407Z" fill="white"/>
</svg>
